<?xml version="1.0" encoding="UTF-8" standalone="no"?>
<!-- Created with Inkscape (http://www.inkscape.org/) -->

<svg
   xmlns:dc="http://purl.org/dc/elements/1.1/"
   xmlns:cc="http://creativecommons.org/ns#"
   xmlns:rdf="http://www.w3.org/1999/02/22-rdf-syntax-ns#"
   xmlns:svg="http://www.w3.org/2000/svg"
   xmlns="http://www.w3.org/2000/svg"
   xmlns:sodipodi="http://sodipodi.sourceforge.net/DTD/sodipodi-0.dtd"
   xmlns:inkscape="http://www.inkscape.org/namespaces/inkscape"
   width="512"
   height="256"
   viewBox="0 0 135.46666 67.733335"
   version="1.1"
   id="svg8"
   inkscape:version="0.92.1 r15371"
   sodipodi:docname="logo.svg">
  <defs
     id="defs2" />
  <sodipodi:namedview
     id="base"
     pagecolor="#ffffff"
     bordercolor="#666666"
     borderopacity="1.0"
     inkscape:pageopacity="0.0"
     inkscape:pageshadow="2"
     inkscape:zoom="3.22"
     inkscape:cx="241.88201"
     inkscape:cy="130.98916"
     inkscape:document-units="mm"
     inkscape:current-layer="layer1"
     showgrid="false"
     units="px"
     inkscape:window-width="1920"
     inkscape:window-height="1027"
     inkscape:window-x="-8"
     inkscape:window-y="-8"
     inkscape:window-maximized="1" />
  <metadata
     id="metadata5">
    <rdf:RDF>
      <cc:Work
         rdf:about="">
        <dc:format>image/svg+xml</dc:format>
        <dc:type
           rdf:resource="http://purl.org/dc/dcmitype/StillImage" />
        <dc:title></dc:title>
      </cc:Work>
    </rdf:RDF>
  </metadata>
  <g
     inkscape:label="Layer 1"
     inkscape:groupmode="layer"
     id="layer1"
     transform="translate(0,-229.26665)">
    <path
       style="fill:#000000;stroke-width:0.48768476"
       id="path81"
       d="m 16.539438,242.48787 c -0.06491,0.7674 -0.08463,1.5417 -0.09969,2.31456 -0.01637,0.85112 0.03903,1.70056 0.06556,2.55013 0.0081,0.93396 0.06034,1.86434 0.09856,2.79602 0.01919,0.9411 0.07572,1.87859 0.112386,2.81819 0.05886,1.07704 0.104937,2.15533 0.167929,3.23183 0.04235,0.98984 0.116704,1.9752 0.16908,2.96372 0.06835,0.78205 0.105109,1.5692 0.160264,2.35325 0.04968,0.75577 0.107637,1.50993 0.160213,2.2652 0.03722,0.79076 0.09781,1.57805 0.140811,2.36804 0.0296,0.73999 0.08947,1.47621 0.160965,2.20904 0.03623,0.53218 0.116587,1.05201 0.179861,1.57698 0.06403,0.31284 0.119923,0.62554 0.149079,0.95086 0.04814,0.3513 0.09085,0.70424 0.141894,1.05464 0.04664,0.35371 0.133491,0.68804 0.179949,1.04224 0.006,0.0114 0.07813,0.46444 0.07636,0.31416 0,0 -1.439368,1.40672 -1.439368,1.40672 v 0 c -0.07085,-0.14646 -0.09705,-0.31903 -0.131205,-0.49267 -0.03989,-0.35422 -0.126842,-0.68517 -0.173674,-1.03631 -0.05351,-0.3577 -0.09858,-0.7172 -0.15354,-1.07447 -0.02327,-0.32333 -0.07517,-0.63379 -0.14127,-0.94266 -0.05689,-0.53096 -0.139415,-1.05471 -0.170196,-1.59211 -0.07196,-0.73876 -0.136268,-1.48048 -0.163583,-2.22683 -0.03996,-0.78843 -0.105582,-1.57272 -0.138836,-2.36196 -0.05286,-0.75446 -0.113273,-1.50717 -0.162129,-2.26229 -0.05935,-0.78748 -0.08347,-1.5811 -0.155807,-2.36685 -0.04727,-0.98972 -0.122521,-1.97549 -0.161494,-2.96624 -0.06289,-1.07799 -0.107507,-2.15781 -0.174242,-3.23534 -0.03674,-0.93922 -0.09862,-1.87558 -0.114149,-2.81661 -0.03538,-0.93239 -0.09357,-1.86258 -0.101903,-2.79703 -0.02671,-0.85534 -0.08331,-1.71037 -0.07232,-2.56693 0.01337,-0.77402 0.03431,-1.54756 0.07517,-2.31946 0,0 1.515276,-1.15782 1.515276,-1.15782 z"
       inkscape:connector-curvature="0" />
    <path
       style="fill:#000000;stroke-width:0.48768476"
       id="path83"
       d="m 11.910686,243.41436 c 0.296526,-0.54225 0.626828,-1.03614 0.952784,-1.53554 0.327896,-0.49276 0.681055,-0.94545 1.046175,-1.37095 0.803832,-1.00107 1.712928,-1.71374 2.609068,-2.50959 -2.651442,2.35491 -0.564474,0.49476 0.370089,-0.3033 0.239675,-0.2046 0.517501,-0.29751 0.777486,-0.41901 0.335921,-0.16776 0.686,-0.2158 1.036321,-0.24295 0.366797,-0.0428 0.727612,0.0355 1.07913,0.19385 0.418715,0.2023 0.788602,0.54848 1.143758,0.93584 0.342732,0.35388 0.629743,0.80082 0.90618,1.26766 0.252493,0.41915 0.477262,0.87231 0.675146,1.35533 0.222524,0.54752 0.351973,1.1663 0.468125,1.78261 0.11436,0.68998 0.192613,1.39155 0.274066,2.09197 0.06409,0.69805 0.132008,1.39551 0.184478,2.096 0.04228,0.63218 0.05088,1.26812 0.05531,1.90311 0.0026,0.60621 0.0024,1.21244 0.0017,1.81865 0.01217,0.59613 -0.02014,1.19 -0.0769,1.77917 -0.0554,0.57639 -0.161809,1.13348 -0.290611,1.67957 -0.119804,0.46317 -0.230866,0.93413 -0.378945,1.37806 -0.135718,0.38234 -0.333839,0.69044 -0.535448,0.98965 -0.619164,0.74371 -1.314516,1.36218 -2.055002,1.76513 -0.244346,0.1 -0.4862,0.1991 -0.736861,0.25719 -0.314958,0.0206 -0.624839,0.0891 -0.937229,0.15012 -0.327273,0.0274 -0.647195,0.1348 -0.971865,0.19842 -0.290318,0.0497 -0.582935,0.0581 -0.874791,0.0614 -0.285685,0.0368 -0.562947,-0.0332 -0.844383,-0.0929 -0.262611,-0.0206 -0.516476,-0.10144 -0.773943,-0.17506 -0.225488,-0.0611 -0.454569,-0.0728 -0.682914,-0.0801 -0.19164,-0.0956 -0.39855,-0.0951 -0.587902,-0.19429 -0.124286,-0.0954 -0.147312,-0.21558 -0.172471,-0.41324 0,0 1.517669,-1.17418 1.517669,-1.17418 v 0 c -0.06977,0.0615 0.01075,0.0764 0.0522,0.10781 0.186778,0.0547 0.373916,0.11649 0.562828,0.14692 0.233878,0.0142 0.467793,0.0409 0.697508,0.11449 0.253955,0.0766 0.509287,0.12273 0.766472,0.16637 0.275764,0.0577 0.550705,0.0846 0.829283,0.0615 0.287944,-0.009 0.576457,-0.0229 0.862042,-0.0851 0.323388,-0.0705 0.645198,-0.15562 0.971098,-0.19589 0.311737,-0.0629 0.624559,-0.1 0.936058,-0.16319 0.243458,-0.0742 0.484888,-0.17208 0.718903,-0.29951 0.07144,-0.0456 0.143869,-0.0873 0.214302,-0.13664 0.03321,-0.0232 0.129394,-0.10303 0.09799,-0.0746 -2.365883,2.14504 -1.664835,1.48069 -1.156138,1.03721 0.213151,-0.26057 0.405021,-0.5655 0.560822,-0.91053 0.16856,-0.41994 0.266367,-0.89118 0.395572,-1.34155 0.123531,-0.53672 0.252806,-1.06897 0.304845,-1.63734 0.0663,-0.57442 0.09947,-1.15838 0.08898,-1.74203 4.69e-4,-0.60564 0.0024,-1.21128 2.07e-4,-1.81692 -0.0039,-0.62776 -0.0078,-1.25639 -0.04595,-1.88193 -0.04608,-0.69672 -0.118363,-1.38789 -0.177273,-2.08207 -0.07927,-0.69217 -0.157712,-1.3845 -0.266874,-2.06735 -0.109736,-0.59346 -0.23476,-1.18918 -0.450047,-1.71434 -0.19218,-0.47067 -0.413098,-0.9089 -0.658722,-1.31701 -0.267721,-0.45312 -0.550236,-0.88031 -0.88252,-1.22267 -0.344598,-0.36596 -0.707655,-0.68531 -1.114663,-0.85699 -0.345297,-0.1267 -0.696403,-0.17301 -1.050878,-0.12245 -0.342593,0.0389 -0.681612,0.11791 -1.00855,0.28731 -0.194113,0.0929 -0.385566,0.18513 -0.571443,0.31346 -0.06344,0.0438 -0.247436,0.19475 -0.187886,0.13935 0.480317,-0.44581 3.364936,-3.00802 -0.363544,0.31082 2.472758,-2.2092 1.296941,-1.20958 0.84578,-0.75209 -0.206056,0.20895 -0.388761,0.46822 -0.591982,0.68325 -0.370456,0.40832 -0.720879,0.86107 -1.055055,1.33762 -0.326615,0.48299 -0.651923,0.97242 -0.944503,1.50527 0,0 -1.557173,1.01598 -1.557173,1.01598 z"
       inkscape:connector-curvature="0" />
    <path
       style="fill:#000000;stroke-width:0.48768476"
       id="path85"
       d="m 29.760041,264.98787 c 0.173044,-0.82255 0.218379,-1.67937 0.1704,-2.53646 -0.05415,-0.71037 -0.242168,-1.33514 -0.565864,-1.84264 -0.257029,-0.38509 -0.596457,-0.57958 -0.938641,-0.70855 -0.323748,-0.0993 -0.650404,-0.14945 -0.972392,-0.0247 -0.535459,0.31109 -1.409838,1.15493 0.941443,-0.88735 0.06157,-0.0536 -0.121511,0.11156 -0.180921,0.17028 -0.172126,0.17094 -0.210496,0.22129 -0.374737,0.40918 -0.406834,0.44488 -0.703055,1.05111 -0.979405,1.67982 -0.268794,0.59941 -0.396194,1.28641 -0.502184,1.98627 -0.10787,0.77695 -0.124316,1.57314 -0.136475,2.36452 -0.02969,0.75389 0.04767,1.49182 0.154136,2.22354 0.108803,0.7188 0.288864,1.40461 0.498076,2.06638 0.177092,0.56414 0.395418,1.09503 0.675308,1.55028 0.216254,0.33747 0.463855,0.61859 0.755599,0.77385 0.208081,0.0428 0.447294,0.15632 0.656958,0.0632 0.04618,-0.0206 0.08756,-0.0611 0.131352,-0.0914 0.590818,-0.60889 -0.183322,0.19704 -1.125698,0.95693 -0.06661,0.0538 0.118632,-0.1428 0.173916,-0.22129 0.205013,-0.29124 0.369934,-0.63136 0.537429,-0.97246 0.37717,-0.7567 0.710563,-1.56102 1.005852,-2.39897 0.271511,-0.75897 0.414143,-1.59843 0.519296,-2.44367 0.09364,-0.75916 0.08975,-1.52468 0.05365,-2.29118 -0.0414,-0.50272 -0.06877,-1.04343 -0.287028,-1.44687 -0.01681,-0.0114 -0.03238,-0.042 -0.05044,-0.0357 -0.01484,0.005 -0.03594,0.0716 -0.02255,0.061 0.48233,-0.3918 0.952665,-0.81807 1.435463,-1.2085 0.01943,-0.016 -0.03152,0.0491 -0.0403,0.0803 -0.02834,0.1003 -0.03523,0.26862 -0.04307,0.36854 -0.02828,0.66594 -0.02288,1.33407 -0.02402,2.00109 0.0031,0.81193 0.09058,1.60951 0.220136,2.39392 0.101797,0.62626 0.339463,1.15083 0.630417,1.60289 0.264485,0.42659 0.617313,0.61795 0.971624,0.79419 0.343282,0.1563 0.69532,0.26013 1.048992,0.14625 0.04838,-0.0289 0.09755,-0.0547 0.14513,-0.0865 0.189435,-0.12671 0.335855,-0.27794 0.297429,-0.24462 -2.195939,1.90498 -1.472365,1.39186 -0.983452,0.74034 0.365048,-0.53746 0.618738,-1.20947 0.829369,-1.90879 0.279041,-0.91649 0.379387,-1.91021 0.439744,-2.90814 0.02597,-0.80997 0.07265,-1.61752 0.177486,-2.41272 0.195997,-1.24623 0.266887,-0.85606 1.649649,-1.66897 0.02922,-0.016 0.0744,0.22337 0.119686,0.43597 0.159719,0.91141 0.2768,1.83989 0.387046,2.76813 0.128667,1.11427 0.281193,2.22009 0.455365,3.31928 0.135258,0.60469 0.154395,1.29407 0.384554,1.83943 0.02067,0.0277 0.0373,0.0648 0.06197,0.0831 0.01307,0.009 0.02881,-0.002 0.0432,-0.005 -0.484705,0.38458 -0.969337,0.76942 -1.454117,1.1538 -0.01921,0.016 0.04577,-0.0183 0.05742,-0.0464 0.03035,-0.0734 0.06416,-0.40024 0.07037,-0.45014 0.094,-0.94637 0.185204,-1.89361 0.258298,-2.84442 0.08085,-0.99846 0.159966,-1.99818 0.300357,-2.98156 0.137663,-0.80589 0.383794,-1.5266 0.729525,-2.16186 0.663467,-1.05976 1.530091,-1.7891 2.411654,-2.33808 0.26588,-0.14852 0.479696,-0.20526 0.72421,0.0375 0.24341,0.33408 0.395211,0.76408 0.538194,1.20712 0.214728,0.70659 0.322042,1.46617 0.411391,2.22934 0.08926,0.86732 0.106819,1.74575 0.118602,2.62202 0.01937,0.689 0.065,1.37467 0.157006,2.04971 0.05553,0.53481 0.176263,1.02961 0.312297,1.52448 0.123457,0.4442 0.298767,0.85047 0.494446,1.22624 0.140722,0.25321 0.327047,0.45402 0.527104,0.58094 0.19096,0.0797 0.396315,0.12017 0.591232,0.0606 0.552136,-0.31659 1.527771,-1.17181 -0.844791,0.81466 -0.07166,0.0599 0.135124,-0.1409 0.200448,-0.21627 0.07166,-0.0827 0.140187,-0.1714 0.210288,-0.25704 0.467612,-0.6143 0.909553,-1.27477 1.334979,-1.95765 0.43679,-0.68731 0.806705,-1.46154 1.142449,-2.26997 0.386482,-1.02813 0.649223,-2.14924 0.884257,-3.27648 0.282572,-1.331 0.420465,-2.71325 0.537772,-4.09719 0.103667,-1.39613 0.144106,-2.80253 0.131622,-4.20718 -0.0056,-1.15166 -0.0976,-2.29474 -0.339761,-3.38562 -0.174295,-0.72999 -0.426007,-1.38401 -0.779907,-1.93612 -0.203391,-0.2795 -0.450384,-0.47664 -0.727165,-0.43387 -0.03509,0.0206 -0.07287,0.0302 -0.105216,0.0591 -0.03684,0.0326 -0.136981,0.15378 -0.09966,0.12244 0.445589,-0.37399 0.873889,-0.79703 1.326026,-1.15187 0.05035,-0.0397 -0.07821,0.12657 -0.110589,0.19797 -0.08248,0.18171 -0.139503,0.3965 -0.199576,0.5956 -0.255047,0.99905 -0.27478,2.08737 -0.306819,3.14639 -0.0222,1.34796 -0.03564,2.69732 -0.0099,4.0453 0.0295,1.18155 0.114395,2.35802 0.207628,3.53102 0.06905,0.88971 0.100065,1.78413 0.188068,2.67032 0.05503,0.67381 0.155387,1.33107 0.285377,1.97886 0.126722,0.52451 0.274591,1.03631 0.470986,1.50773 0.156406,0.4128 0.410878,0.60886 0.678487,0.80614 0.223961,0.16109 0.466658,0.20733 0.710317,0.22935 0.251165,0.0142 0.501357,-0.10712 0.731621,-0.25429 0.556257,-0.46934 0.292526,-0.24827 -1.201331,1.06174 -0.0408,0.0357 0.08119,-0.0728 0.121243,-0.11054 0.111418,-0.10507 0.208514,-0.22268 0.307127,-0.35413 0.215065,-0.29547 0.407988,-0.62218 0.58312,-0.97396 0.225281,-0.51713 0.341531,-1.11869 0.431366,-1.71959 0.135228,-0.84874 0.18414,-1.71814 0.214615,-2.58814 0.01132,-0.79689 0.04071,-1.59717 0.0071,-2.39352 -0.0098,-0.0757 -0.01646,-0.15265 -0.02938,-0.22725 -0.01944,-0.1119 -0.05186,-0.20665 -0.06452,-0.20093 -0.0141,0.007 -0.01366,0.078 -7.85e-4,0.0678 1.492302,-1.18659 1.258329,-2.02777 1.481944,-1.15031 0.196608,0.31547 0.489358,0.44023 0.753407,0.56336 0.390598,0.13892 0.786706,0.23968 1.143215,0.53272 0.257818,0.25509 0.342767,0.64043 0.380982,1.08516 0.01937,0.57586 -0.03467,1.15589 -0.08205,1.72679 -0.0759,0.7122 -0.109655,1.43132 -0.1288,2.15169 -0.02848,0.63197 -0.0039,1.25661 0.08123,1.87528 0.0665,0.45109 0.198981,0.73384 0.433628,1.00448 0.224956,0.22542 0.493545,0.23674 0.753054,0.2568 0.40323,0.008 0.808077,0.0415 1.210087,-0.016 0.378539,-0.094 0.745318,-0.25945 1.096751,-0.49348 0.511742,-0.45495 1.386814,-1.13819 -0.985788,0.86924 -0.05144,0.0434 0.09493,-0.10667 0.13992,-0.16478 0.11682,-0.15082 0.153872,-0.22291 0.258578,-0.39555 0.343015,-0.62844 0.544488,-1.37061 0.686592,-2.15288 0.118467,-0.843 0.173615,-1.70995 0.157478,-2.57221 -0.01173,-0.2325 -0.01366,-0.48138 -0.08857,-0.69222 -0.01156,-0.0325 -0.02542,-0.0655 -0.0452,-0.0862 -0.0084,-0.008 -0.04008,0.0142 -0.03083,0.007 0.472223,-0.36714 0.947589,-0.72461 1.421389,-1.08694 -0.206248,0.56178 -0.187983,1.26276 -0.202897,1.89079 -0.0065,0.82185 -0.03708,1.64681 0.03413,2.46345 0.03684,0.47813 0.138806,0.89054 0.388273,1.18801 0.273178,0.19704 0.584333,0.20437 0.87972,0.17233 0.537243,-0.0996 1.036482,-0.41284 1.512378,-0.79525 -2.269,2.03013 -1.067033,1.02183 -0.634664,0.40533 0.274331,-0.39116 0.480765,-0.83076 0.688092,-1.30617 0.443443,-1.16497 0.597586,-2.49083 0.700866,-3.81234 0.02396,-0.41248 0.05968,-0.83239 0.0129,-1.24481 -0.0086,-0.0763 -0.04054,-0.28878 -0.05608,-0.21534 -0.0072,0.0348 0.0084,0.0719 0.01261,0.10781 0.479761,-0.40934 0.950206,-0.84579 1.439288,-1.22805 0.0264,-0.0206 -0.02377,0.0839 -0.03162,0.12798 -0.01292,0.0719 -0.02109,0.14556 -0.0304,0.2188 -0.04404,0.3459 -0.06718,0.69135 -0.08861,1.04209 -0.05187,1.1982 -0.06441,2.40017 -0.04956,3.60051 0.03351,1.71331 0.272729,3.39239 0.480959,5.06968 0.271237,1.9674 0.560311,3.92872 0.794743,5.90763 0.224188,1.75862 0.327437,3.54262 0.385405,5.33002 0.02517,0.95471 0.03939,1.91972 -0.05319,2.8681 -0.04729,0.48446 -0.09246,0.69035 -0.174399,1.15773 -0.181013,0.88866 -0.378949,1.53925 -0.862821,2.11253 -0.696339,0.61483 -1.524627,1.78129 -2.432344,1.52714 -0.235805,-0.066 -0.347604,-0.15837 -0.569789,-0.29891 -0.710742,-0.58683 -1.118159,-1.39804 -1.494554,-2.46979 -0.376705,-1.24825 -0.464061,-2.61072 -0.453464,-3.96956 0.02643,-1.50063 0.310128,-2.60941 0.777273,-3.89697 0.414728,-1.11357 0.957173,-2.09351 1.536786,-3.00902 0.856581,-1.29377 1.93251,-2.21187 3.020451,-2.96354 0.724557,-0.4536 1.450449,-0.89411 2.149425,-1.4364 0.150658,-0.12543 0.59834,-0.51307 0.451975,-0.37613 -0.305897,0.28617 -0.615368,0.5639 -0.930864,0.82414 -0.16465,0.13566 0.319899,-0.2972 0.477927,-0.45055 0.492264,-0.47772 0.954946,-0.99334 1.412425,-1.5462 0.737463,-0.92463 1.414942,-1.96123 1.940295,-3.1858 0.168504,-0.46723 0.09924,-0.24302 0.214927,-0.66726 0,0 1.523549,-1.08672 1.523549,-1.08672 v 0 c -0.114487,0.46712 -0.04459,0.2236 -0.21742,0.7249 -0.522954,1.25954 -1.203057,2.32813 -1.949162,3.28007 -1.291542,1.60885 -2.739367,2.87784 -4.207729,4.06568 -0.709143,0.53262 -1.442674,0.97311 -2.167701,1.45087 -0.682214,0.50717 -0.42375,0.33027 0.851203,-0.8195 0.09026,-0.0815 -0.18158,0.16019 -0.269191,0.24822 -0.153548,0.15425 -0.379789,0.41597 -0.517399,0.59937 -0.08618,0.11491 -0.166397,0.2399 -0.249596,0.35985 -0.590859,0.88987 -1.140407,1.85758 -1.565406,2.95404 -0.465794,1.23283 -0.779205,2.32693 -0.812729,3.78216 -0.02024,1.31586 0.05595,2.6378 0.419182,3.84882 0.356789,1.00505 0.755875,1.80038 1.443226,2.30548 0.269965,0.14601 0.513243,0.26888 0.804254,0.22657 0.603761,-0.088 1.572411,-1.19507 -0.746664,0.92568 0.139045,-0.13295 0.249192,-0.22176 0.366866,-0.40191 0.275409,-0.42171 0.426994,-1.01249 0.559883,-1.56032 0.07759,-0.40369 0.144017,-0.7084 0.191796,-1.12571 0.107184,-0.93603 0.0983,-1.89546 0.07795,-2.84103 -0.04891,-1.78063 -0.141968,-3.55911 -0.361648,-5.31176 -0.228147,-1.97926 -0.518415,-3.93879 -0.79635,-5.90249 -0.215065,-1.68494 -0.463854,-3.37016 -0.512594,-5.09155 -0.02428,-1.20169 -0.01485,-2.4053 0.01933,-3.60646 0.01745,-0.43035 0.05368,-0.84606 0.08993,-1.27197 0.0053,-0.061 -0.02501,-0.14945 0.0079,-0.18401 0.479754,-0.50468 0.993484,-0.92795 1.49023,-1.39192 0.291798,0.43806 0.146125,1.20964 0.13076,1.75818 -0.106507,1.34649 -0.249933,2.70264 -0.667866,3.91563 -0.786949,1.96824 -1.439278,2.31367 -2.870825,3.53214 -0.496211,0.362 -1.013733,0.66681 -1.567386,0.72164 -0.331801,9.3e-4 -0.673939,-0.0233 -0.956714,-0.32252 -0.263031,-0.36527 -0.399101,-0.81851 -0.43651,-1.36459 -0.07746,-0.83083 -0.04648,-1.66827 -0.0433,-2.5054 0.01132,-0.67491 0.0049,-1.37127 0.140454,-2.02024 1.211835,-1.0662 1.690654,-2.28902 1.789163,-0.35465 0.02069,0.88594 -0.0434,1.77536 -0.145873,2.64639 -0.128534,0.81027 -0.316628,1.574 -0.64037,2.25098 -0.584275,1.11004 -1.455485,1.70407 -2.285373,2.30481 -0.362627,0.211 -0.739276,0.36633 -1.126029,0.42472 -0.409056,0.0277 -0.819265,0.0183 -1.228317,-0.007 -0.289797,-0.0367 -0.57594,-0.0985 -0.813223,-0.38147 -0.245417,-0.30707 -0.414737,-0.6849 -0.48783,-1.16653 -0.08689,-0.6396 -0.125713,-1.28484 -0.09139,-1.93889 0.0167,-0.72624 0.04073,-1.45285 0.117637,-2.171 0.05105,-0.54818 0.09127,-1.10818 0.09099,-1.66116 -0.0227,-0.36557 -0.06801,-0.67424 -0.292557,-0.86694 -0.355946,-0.25972 -0.7472,-0.34076 -1.124299,-0.50243 -0.308736,-0.15836 -0.637357,-0.32059 -0.841508,-0.73682 -0.01603,-0.0517 -0.07779,-0.12103 -0.04803,-0.15539 1.038509,-1.20128 1.430553,-2.28988 1.631296,-0.81066 0.03758,0.80844 -0.0077,1.62205 -0.01217,2.43145 -0.02486,0.87903 -0.06288,1.75926 -0.193659,2.61882 -0.0808,0.62724 -0.192863,1.24482 -0.392034,1.81017 -0.164783,0.37252 -0.352804,0.71243 -0.567022,1.02032 -0.131426,0.19795 -0.257091,0.37429 -0.417008,0.51606 -1.606636,1.42446 -1.013492,1.04091 -1.705589,1.47603 -0.252511,0.11988 -0.511096,0.22061 -0.777518,0.16729 -0.257592,-0.0439 -0.509979,-0.1277 -0.742596,-0.31165 -0.290861,-0.22268 -0.55355,-0.48968 -0.72469,-0.93031 -0.202149,-0.49306 -0.354818,-1.02624 -0.488535,-1.57128 -0.134768,-0.65976 -0.238126,-1.32998 -0.290709,-2.01804 -0.09086,-0.89079 -0.117755,-1.79039 -0.180875,-2.68619 -0.09029,-1.18286 -0.172104,-2.36903 -0.203275,-3.55959 -0.03079,-1.35303 -0.01144,-2.70772 0.0039,-4.06107 0.02261,-1.07797 0.03509,-2.18104 0.256776,-3.21465 0.03484,-0.13253 0.195455,-0.81495 0.269892,-0.8926 0.320711,-0.33454 1.148166,-1.47366 1.81359,-1.53582 0.30693,0.0627 0.57125,0.2706 0.790353,0.61229 0.360238,0.59218 0.621845,1.28142 0.802685,2.04574 0.248065,1.11677 0.344256,2.28852 0.350266,3.46773 0.01704,1.4161 -0.02719,2.83423 -0.124748,4.24266 -0.113868,1.39386 -0.243199,2.78861 -0.51853,4.13265 -0.226838,1.14224 -0.490209,2.27164 -0.855958,3.32796 -0.326189,0.82605 -0.691913,1.61656 -1.127477,2.31569 -0.418998,0.69399 -0.864467,1.34997 -1.32147,1.98421 -0.722883,0.94644 -1.543358,1.86417 -2.476929,2.17476 -0.219993,5.2e-4 -0.442234,-0.0304 -0.644684,-0.17414 -0.212743,-0.17531 -0.41389,-0.39309 -0.564176,-0.68767 -0.198299,-0.40126 -0.383947,-0.82287 -0.512854,-1.28863 -0.140276,-0.51011 -0.271485,-1.017 -0.323755,-1.57049 -0.09925,-0.6911 -0.142235,-1.39417 -0.164416,-2.10073 -0.0077,-0.86432 -0.02084,-1.73126 -0.104227,-2.58768 -0.08316,-0.73879 -0.192359,-1.4704 -0.398952,-2.15371 -0.129454,-0.38947 -0.260109,-0.79364 -0.495069,-1.059 -0.211835,-0.1213 -0.428862,0.016 -0.627504,0.14281 -0.524275,0.38038 -1.371714,1.14127 0.960741,-0.90976 0.05816,-0.051 -0.111418,0.11491 -0.164519,0.1776 -0.105571,0.125 -0.243484,0.31918 -0.342264,0.45462 -0.111522,0.18491 -0.221851,0.35645 -0.317512,0.56298 -0.207294,0.44754 -0.329859,0.9755 -0.452167,1.48668 -0.154036,0.97374 -0.234674,1.9685 -0.316918,2.96175 -0.06889,0.94902 -0.162305,1.89307 -0.232145,2.84183 -0.01653,0.15835 -0.03599,0.67753 -0.05405,0.69408 -0.973363,0.89257 -1.216794,1.88802 -1.698499,1.01816 -0.228375,-0.58666 -0.261444,-1.28508 -0.390091,-1.93033 -0.166917,-1.1073 -0.31819,-2.21894 -0.451177,-3.33734 -0.111499,-0.91206 -0.232316,-1.82465 -0.403698,-2.71495 -0.01425,-0.0666 -0.02513,-0.13508 -0.04268,-0.19956 -0.0084,-0.0314 -0.05382,-0.0686 -0.03496,-0.0862 0.477389,-0.44059 0.983467,-0.80362 1.464912,-1.23362 0.01982,-0.0183 -0.04983,-0.0353 -0.06809,-0.0142 -0.03096,0.0363 -0.097,0.38393 -0.09795,0.38842 -0.124421,0.78365 -0.17365,1.58836 -0.200638,2.39291 -0.05756,1.01745 -0.142562,2.03747 -0.412553,2.98155 -0.199669,0.72378 -0.441579,1.41609 -0.791038,1.99789 -0.651945,0.98657 -1.483769,1.7583 -2.363864,2.12804 -0.371707,0.0412 -0.73691,-0.0671 -1.090066,-0.2462 -0.376061,-0.19522 -0.738246,-0.44484 -1.015728,-0.89859 -0.304722,-0.4921 -0.555964,-1.05876 -0.668015,-1.7256 -0.131888,-0.80374 -0.226079,-1.62012 -0.238385,-2.45121 -0.0023,-0.67005 -0.0069,-1.34041 0.0043,-2.01033 0.0012,-0.0378 0.01863,-0.57007 0.03079,-0.58216 0.851499,-0.84563 1.135052,-1.94399 1.655374,-1.17903 0.217885,0.47084 0.283738,1.023 0.321785,1.59021 0.03478,0.78695 0.05137,1.57218 -0.04106,2.3534 -0.09576,0.86733 -0.235981,1.73203 -0.499098,2.51811 -0.291537,0.84899 -0.619038,1.66811 -0.997104,2.43298 -0.666615,1.43695 -1.204183,2.11512 -2.451697,2.84729 -0.28812,0.0813 -0.579184,0.0337 -0.85694,-0.11167 -0.300502,-0.20552 -0.562299,-0.51113 -0.789493,-0.8774 -0.285931,-0.4814 -0.511092,-1.03431 -0.694859,-1.62205 -0.213036,-0.68045 -0.402101,-1.38172 -0.516648,-2.11855 -0.109854,-0.75089 -0.200953,-1.50679 -0.169931,-2.2818 0.01109,-0.80497 0.02117,-1.61514 0.119537,-2.40846 0.100699,-0.72352 0.21374,-1.44129 0.475791,-2.07333 0.276956,-0.63894 0.552379,-1.28781 0.956815,-1.75671 0.175762,-0.21261 0.350658,-0.43358 0.544489,-0.60707 0.613275,-0.54897 1.249689,-1.33598 1.973059,-1.60796 0.340433,-0.0637 0.68246,-0.008 1.0148,0.12088 0.364288,0.16821 0.717135,0.3993 0.985739,0.82948 0.337376,0.56211 0.547707,1.23636 0.611452,2.00125 0.05619,0.87949 0.02001,1.75431 -0.12491,2.61251 0,0 -1.526313,1.11371 -1.526313,1.11371 z"
       inkscape:connector-curvature="0" />
    <path
       style="fill:#000000;stroke-width:0.48768476"
       id="path87"
       d="m 42.879985,254.27056 c 0.699375,-0.45327 1.422268,-0.80417 2.144533,-1.15802 1.022845,-0.56618 2.06822,-1.01961 3.120153,-1.43573 0.874485,-0.35013 1.753317,-0.67023 2.631973,-0.99352 0.40092,-0.11338 0.787972,-0.316 1.187718,-0.43525 0,0 -1.34582,1.57373 -1.34582,1.57373 v 0 c -0.388446,0.13523 -0.772873,0.29722 -1.164022,0.41465 -0.872335,0.30429 -1.741049,0.62993 -2.607483,0.9724 -1.051687,0.42082 -2.093837,0.89176 -3.118322,1.4519 -0.734332,0.36581 -1.468493,0.73826 -2.173044,1.22769 0,0 1.324314,-1.61785 1.324314,-1.61785 z"
       inkscape:connector-curvature="0" />
    <path
       style="fill:#000000;stroke-width:0.48768476"
       id="path89"
       d="m 78.92917,240.92864 c -0.07129,0.86691 -0.07645,1.74167 -0.112947,2.61258 -0.0548,0.9734 -0.08592,1.9489 -0.103162,2.92542 -0.01638,1.08291 -0.0154,2.16621 -0.01556,3.24932 0.0037,1.16419 0.04264,2.32893 0.09096,3.49071 0.04918,1.22271 0.116611,2.44375 0.20164,3.66178 0.0676,1.05335 0.154345,2.10349 0.218351,3.15743 0.06306,0.80385 0.107378,1.61092 0.18749,2.41131 0.05813,0.53415 0.07565,1.07516 0.131502,1.60948 0.02581,0.23633 0.03783,0.47431 0.09625,0.69794 0,0 -1.482223,1.27268 -1.482223,1.27268 v 0 c -0.05947,-0.24413 -0.08497,-0.49451 -0.104689,-0.75307 -0.05629,-0.53728 -0.07518,-1.07917 -0.125253,-1.61798 -0.07596,-0.80886 -0.116389,-1.62317 -0.18077,-2.43442 -0.05626,-1.05513 -0.144565,-2.10489 -0.209678,-3.15871 -0.0856,-1.22199 -0.145917,-2.44802 -0.200398,-3.67411 -0.05454,-1.16464 -0.09396,-2.33362 -0.102796,-3.50102 3.91e-4,-1.08414 7.85e-4,-2.16833 0.01054,-3.25239 0.0144,-0.97955 0.04161,-1.95828 0.09882,-2.93443 0.04039,-0.86685 0.04366,-1.73678 0.08914,-2.60341 0,0 1.512814,-1.15911 1.512814,-1.15911 z"
       inkscape:connector-curvature="0" />
    <path
       style="fill:#000000;stroke-width:0.48768476"
       id="path91"
       d="m 74.060104,241.45298 c 0.471019,-0.29663 0.936273,-0.61446 1.409917,-0.90211 0.504473,-0.33264 1.028923,-0.57567 1.556354,-0.80219 0.49475,-0.18859 0.99899,-0.29506 1.506246,-0.36005 0.60071,-0.11606 1.204426,-0.18034 1.806241,-0.28042 0.494097,-0.0846 0.990676,-0.12286 1.487381,-0.14464 0.354921,0.0206 0.690647,0.15607 0.980949,0.47242 0.261346,0.38733 0.35081,0.90983 0.436202,1.434 0.09986,0.68918 0.113624,1.39664 0.124925,2.0996 -0.0012,0.80733 -0.131102,1.59802 -0.27454,2.3694 -0.137856,0.72464 -0.355467,1.39787 -0.579457,2.06588 -0.220641,0.68629 -0.528002,1.28509 -0.866222,1.84066 -0.343715,0.54277 -0.726296,1.02009 -1.093315,1.52375 -0.19018,0.28991 -0.412512,0.55624 -0.547031,0.91956 -0.0887,-0.10189 0.619874,-0.29919 0.632789,-0.30397 0.542368,-0.21307 1.092557,-0.34418 1.649647,-0.4175 0.553924,-0.10599 1.100523,-0.0243 1.643496,0.15104 0.492848,0.22496 0.887296,0.70029 1.241851,1.256 0.409742,0.70696 0.719834,1.52882 1.023944,2.34761 0.353712,0.97985 0.641399,2.01317 0.862641,3.08051 0.236279,1.11767 0.321632,2.28606 0.373289,3.45293 0.04089,1.02606 -0.06255,1.88955 -0.351237,2.80937 -0.63211,1.59866 -1.580555,2.088 -2.657809,3.03775 -0.614707,0.43744 -1.262875,0.71735 -1.916511,0.97291 -0.538672,0.16844 -1.084662,0.28655 -1.6305,0.38655 -0.419483,0.0879 -0.838075,0.0993 -1.258577,0.0398 -0.421339,-0.10326 -0.833507,-0.27059 -1.255303,-0.36982 -0.379763,-0.0778 -0.755844,-0.18216 -1.138035,-0.23245 -0.336696,-0.0368 -0.674381,-0.0378 -1.011737,-0.0398 -0.367784,-0.0319 -0.730738,0.0299 -1.095544,0.09 -0.32276,0.0986 -0.646874,0.17713 -0.954818,0.36099 -0.121333,0.0986 -0.06613,0.0583 -0.164218,0.12472 0,0 1.332433,-1.62486 1.332433,-1.62486 v 0 c 0.0923,-0.0611 0.0379,-0.0269 0.164261,-0.0975 0.318356,-0.14441 0.644546,-0.24029 0.973262,-0.30948 0.369141,-0.0572 0.737783,-0.0902 1.109094,-0.0703 0.339979,0.005 0.680367,0.0142 1.019153,0.0606 0.382353,0.0634 0.760182,0.17004 1.141089,0.25009 0.416747,0.11224 0.826937,0.2804 1.248177,0.35118 0.412244,0.0423 0.823509,0.005 1.233332,-0.0763 0.539525,-0.10644 1.081201,-0.21192 1.611079,-0.40464 0.648958,-0.25484 1.290702,-0.55838 1.891679,-1.02243 -2.358216,2.1391 -1.080079,1.07607 -0.687853,0.55971 0.203354,-0.26773 0.371834,-0.59176 0.524274,-0.9283 0.313134,-0.87776 0.430679,-1.684 0.401221,-2.69258 -0.04498,-1.14813 -0.120398,-2.29898 -0.353531,-3.39856 -0.21579,-1.05057 -0.498587,-2.06757 -0.848676,-3.02936 -0.300533,-0.7964 -0.605393,-1.59766 -1.010485,-2.28154 -0.339539,-0.51378 -0.718491,-0.94988 -1.189238,-1.12698 -0.533608,-0.15151 -1.068659,-0.20574 -1.609452,-0.097 -0.555609,0.0895 -1.10339,0.24095 -1.644753,0.4554 -0.2667,0.0934 -0.713321,0.38405 -0.836127,-0.15196 0.06049,-0.45125 0.337289,-0.73557 0.529028,-1.05698 0.373163,-0.4936 0.747657,-0.98582 1.104224,-1.50827 0.345184,-0.52567 0.656013,-1.10646 0.88428,-1.77024 0.222688,-0.65758 0.446876,-1.31371 0.594577,-2.02252 0.148648,-0.74516 0.277793,-1.51326 0.29583,-2.29566 -0.01043,-0.68387 -0.02168,-1.3726 -0.113507,-2.04445 -0.07345,-0.45778 -0.141953,-0.93582 -0.379937,-1.26249 -0.275028,-0.26363 -0.59276,-0.35338 -0.9149,-0.34811 -0.490888,0.0206 -0.981337,0.0648 -1.469555,0.14898 -0.602441,0.0969 -1.206599,0.16432 -1.807906,0.27831 -0.503685,0.0805 -1.005021,0.20094 -1.494671,0.40419 -0.522728,0.22404 -1.036961,0.49106 -1.537548,0.81521 -0.477716,0.29896 -0.952029,0.61147 -1.420689,0.94276 0,0 1.320826,-1.6287 1.320826,-1.6287 z"
       inkscape:connector-curvature="0" />
    <path
       style="fill:#000000;stroke-width:0.48768476"
       id="path93"
       d="m 93.030644,265.39484 c 0.01232,-0.74106 0.01858,-1.48028 -0.03212,-2.21803 -0.0852,-1.02789 -0.293198,-2.00772 -0.541024,-2.96579 -0.195908,-0.74927 -0.407306,-1.42478 -0.7636,-2.02113 -0.21775,-0.35238 -0.484935,-0.45865 -0.787013,-0.50386 -0.204419,0.007 -0.388949,0.13494 -0.565114,0.28428 -0.05027,0.0426 -0.197715,0.17941 -0.147699,0.13621 0.431032,-0.37336 0.860538,-0.7509 1.290813,-1.12637 -0.380504,0.44954 -0.589391,1.09731 -0.759691,1.76915 -0.252637,1.01845 -0.328089,2.1025 -0.379253,3.18124 -0.04482,1.03281 -0.05904,2.06317 0.05541,3.08525 0.120042,0.7634 0.277246,1.30799 0.716571,1.73514 0.426683,0.32479 0.869137,0.23016 1.30113,-0.008 0.07417,-0.0542 0.150436,-0.10223 0.222524,-0.16295 0.07368,-0.0621 0.28779,-0.26624 0.214106,-0.20436 -0.410468,0.34521 -0.805093,0.73631 -1.224743,1.05421 -0.07736,0.0586 0.131235,-0.17324 0.190009,-0.27042 0.147,-0.2431 0.20878,-0.41476 0.326668,-0.6922 0.337868,-0.85677 0.444081,-1.83867 0.512135,-2.81869 0.02227,-0.39754 0.03369,-0.79648 0.03711,-1.19541 7.85e-4,-0.0815 0.01097,-0.32297 -0.0072,-0.42573 0.503535,-0.32675 0.989108,-0.7292 1.510595,-0.98026 0.05255,-0.0255 -0.0024,0.1698 -0.0031,0.25457 -0.0012,0.0962 -0.0016,0.19245 -0.0024,0.28862 -0.0028,0.36157 0.0084,0.7165 0.02371,1.07734 0.03484,0.80676 0.186997,1.55625 0.473231,2.23092 0.363963,0.70416 0.900906,0.88712 1.449944,1.01182 0.787689,0.0513 1.427933,-0.37074 2.109442,-0.92314 -0.352258,0.30313 -0.692067,0.64355 -1.056781,0.90941 -0.125698,0.0917 0.226868,-0.24845 0.334974,-0.38328 0.102076,-0.12728 0.201835,-0.25976 0.295002,-0.4024 0.27457,-0.42035 0.450074,-0.87372 0.619036,-1.40323 0.25923,-0.95644 0.245284,-1.96591 0.128117,-2.96561 -0.100602,-0.65932 -0.249771,-1.30722 -0.480091,-1.88646 -0.01756,-0.0183 -0.0317,-0.0656 -0.05264,-0.058 -0.01905,0.007 -0.03775,0.0986 -0.02036,0.0849 0.479451,-0.37833 0.933857,-0.83112 1.419787,-1.18927 0.03775,-0.028 -0.03778,0.11605 -0.0484,0.17849 -0.03198,0.1879 -0.04257,0.47899 -0.05323,0.66326 -0.05144,1.04793 -0.03688,2.09319 0.05831,3.13314 0.08873,0.8741 0.275015,1.71186 0.498366,2.5233 0.0409,0.15585 0.07241,0.29401 0.126205,0.43911 0.0424,0.11448 0.0738,0.15263 0.0844,0.13522 0.0138,-0.0229 0.0274,-0.10712 0.009,-0.0926 -0.478812,0.37617 -0.942223,0.79722 -1.413332,1.19582 0.02234,-0.0373 0.04937,-0.0689 0.06704,-0.11168 0.05089,-0.12314 0.113274,-0.39368 0.142622,-0.51534 0.09351,-0.38762 0.181623,-0.77849 0.270903,-1.16842 0.227972,-1.01652 0.53018,-1.97586 0.910587,-2.87578 0.33535,-0.73942 0.75361,-1.36744 1.2278,-1.891 0.65155,-0.63917 0.48463,-0.48194 1.77888,-1.57106 0.16411,-0.13792 0.3849,-0.16958 0.56637,-0.14829 0.34368,0.18376 0.51435,0.6526 0.68487,1.11234 0.21845,0.69258 0.43071,1.39067 0.61016,2.10958 0.18135,0.75926 0.35377,1.52606 0.48323,2.31062 0.077,0.49385 0.17272,0.97731 0.27254,1.4607 0.0577,0.23673 0.16162,0.40278 0.31825,0.47359 0.19641,0.0574 0.39773,0.0526 0.59685,0.054 0.30723,0.0322 0.58739,-0.0114 0.8685,-0.20804 0.49639,-0.46293 1.41296,-1.14519 -0.90093,0.78637 -0.0724,0.0604 0.13513,-0.1451 0.201,-0.22108 0.15989,-0.18468 0.23559,-0.2895 0.38903,-0.48954 0.44887,-0.58762 0.80746,-1.31411 1.13498,-2.06297 0.42545,-0.95341 0.75876,-1.97756 1.02979,-3.05372 0.34461,-1.39846 0.48401,-2.88074 0.57889,-4.36097 0.11276,-1.56649 0.0618,-3.13059 -0.0701,-4.68806 -0.16695,-1.51154 -0.42116,-2.99559 -0.7296,-4.45193 -0.19719,-0.96013 -0.4694,-1.87185 -0.91347,-2.6173 -0.11124,-0.13737 -0.23346,-0.33909 -0.38733,-0.35834 -0.0313,-0.005 -0.0647,0.002 -0.0928,0.025 -0.0318,0.0251 -0.11112,0.13707 -0.0796,0.11088 0.45285,-0.37538 0.89746,-0.77394 1.3462,-1.16092 -0.0337,0.0615 -0.0742,0.11535 -0.10087,0.18447 -0.22165,0.5761 -0.22007,1.59339 -0.24381,2.24299 -0.0282,1.40808 0.13543,2.79997 0.30402,4.17745 0.21087,1.72463 0.47501,3.43186 0.72243,5.1445 0.27784,1.77103 0.46496,3.56841 0.63536,5.36978 0.12573,1.30016 0.2503,2.60042 0.43429,3.8844 0.0173,0.12017 0.0315,0.2415 0.0517,0.36061 0.0148,0.0838 0.0312,0.16637 0.0512,0.24704 0.0119,0.0483 0.0236,0.0986 0.0446,0.13891 0.004,0.008 0.0271,-0.0206 0.0203,-0.0142 -1.49597,1.09313 -1.54613,1.85829 -1.40793,0.78551 0.043,-1.04348 0.0887,-2.08652 0.14569,-3.12877 0.0813,-1.31188 0.19754,-2.61573 0.41034,-3.89272 0.18563,-1.09393 0.55363,-1.91025 1.09595,-2.64877 0.77135,-0.85838 1.5961,-1.7264 2.52757,-2.09429 0.25876,-0.10223 0.37475,-0.11746 0.63935,-0.17737 0.43647,-0.0142 0.93256,-0.26091 1.35868,-0.007 0.064,0.038 0.1201,0.10257 0.18007,0.15378 0.34627,0.4074 0.37485,1.05393 0.40183,1.67446 0.0245,0.92524 -0.18499,1.78054 -0.43847,2.60117 -0.30596,0.90983 -0.72334,1.70875 -1.19716,2.42158 -0.78342,0.98105 -1.65258,1.91299 -2.6246,2.36861 -0.30079,0.12202 -0.49988,0.13821 -0.71902,-0.23029 -0.0757,-0.17919 -0.11966,-0.49439 0.0287,-0.63425 1.39206,-1.31297 1.02536,-1.08345 1.72887,-1.4947 0.40251,-0.20092 0.82685,-0.24813 1.24666,-0.28207 0.24243,-0.0142 0.58708,-0.0142 0.79316,0.22817 0.0368,0.0433 0.0639,0.10303 0.0959,0.15448 0.18019,0.40255 0.16524,0.90199 0.1945,1.36851 0.0189,0.59471 0.13866,1.12897 0.34616,1.62536 0.27287,0.5315 0.65316,0.89262 1.04968,1.16585 0.59458,0.38289 1.24625,0.45326 1.88011,0.56255 0.61963,0.0988 1.24239,0.13069 1.86489,0.14486 0.27769,0.002 0.14756,0.002 0.39061,8.1e-4 0,0 -1.3644,1.52519 -1.3644,1.52519 v 0 c -0.23699,-0.008 -0.10925,-0.005 -0.38303,-0.0142 -0.62133,-0.0266 -1.2425,-0.0752 -1.86066,-0.17896 -0.6511,-0.11719 -1.31833,-0.1975 -1.9237,-0.61716 -0.41861,-0.31403 -0.82099,-0.70293 -1.10523,-1.28429 -0.21851,-0.52862 -0.36232,-1.09463 -0.38732,-1.72742 -0.0305,-0.4 -0.003,-0.849 -0.14296,-1.204 -0.21829,-0.27808 -0.53546,-0.23344 -0.80035,-0.21626 -0.41278,0.0457 -0.83054,0.10735 -1.21622,0.35668 -0.6282,0.454 -0.10689,0.0865 1.1632,-1.09094 0.0495,-0.0457 -0.11426,0.0506 -0.1583,0.10826 -0.0352,0.0461 -0.008,0.0934 0.005,0.13708 0.17352,0.23298 0.40663,0.0897 0.60329,7.4e-4 0.55206,-0.32329 1.28789,-1.07781 -0.90683,0.89888 -0.071,0.0639 0.14311,-0.12514 0.21263,-0.19293 0.22301,-0.21649 0.23409,-0.24475 0.44754,-0.50422 0.48469,-0.67688 0.90513,-1.45394 1.22359,-2.33843 0.25377,-0.77535 0.47489,-1.58603 0.46392,-2.47178 -0.0197,-0.51719 -0.0133,-1.11065 -0.31758,-1.43635 -0.0509,-0.0337 -0.0994,-0.0782 -0.15277,-0.10099 -0.41056,-0.17483 -0.89692,0.0351 -1.31069,0.0697 -0.31552,0.0877 -0.62009,0.18356 -0.9189,0.36931 -0.0946,0.0588 -0.365,0.28089 -0.27873,0.19659 2.82275,-2.76084 1.17536,-1.07433 0.90546,-0.79632 -0.54502,0.65822 -0.95728,1.46775 -1.14777,2.51124 -0.22323,1.26226 -0.34807,2.55185 -0.42595,3.85449 -0.0546,1.03875 -0.10173,2.07783 -0.11298,3.12009 -0.0686,1.2006 0.0288,0.41328 -1.54016,1.76077 -0.0464,0.0398 -0.24842,-0.88337 -0.20054,-0.91813 -0.16566,-1.30096 -0.28191,-2.61381 -0.40639,-3.92535 -0.16516,-1.79723 -0.34795,-3.59048 -0.62496,-5.35654 -0.24799,-1.71302 -0.51966,-3.41796 -0.73727,-5.14104 -0.17411,-1.39169 -0.34734,-2.79574 -0.33626,-4.21929 0.0219,-0.86795 0.0135,-1.79573 0.25872,-2.59644 0.51655,-0.47764 1.02445,-0.97823 1.54965,-1.43288 0.19859,-0.17185 0.54667,0.32276 0.66432,0.49969 0.44023,0.79549 0.72467,1.73336 0.9207,2.7323 0.30674,1.4735 0.56187,2.97214 0.73859,4.49659 0.13747,1.57438 0.19712,3.15572 0.0849,4.74085 -0.0898,1.49346 -0.21417,2.99331 -0.5467,4.41195 -0.2604,1.0904 -0.57834,2.13228 -1.00339,3.09647 -0.31614,0.76726 -0.67143,1.50976 -1.109,2.12368 -0.76065,1.03849 -1.63909,1.844 -2.56451,2.49339 -0.30013,0.14091 -0.60174,0.16158 -0.91442,0.13963 -0.21435,-0.007 -0.43419,-0.0114 -0.63664,-0.13295 -0.18298,-0.14648 -0.31832,-0.37173 -0.39155,-0.67269 -0.0945,-0.49274 -0.18853,-0.98363 -0.26312,-1.48517 -0.12088,-0.77785 -0.28862,-1.53679 -0.46934,-2.28607 -0.17442,-0.70667 -0.38694,-1.38975 -0.6066,-2.06547 -0.14117,-0.372 -0.28307,-0.82912 -0.5946,-0.87398 -0.12941,0.0235 -0.24922,0.0633 -0.37142,0.13636 -0.0486,0.0291 -0.18794,0.13779 -0.14332,0.0963 0.73691,-0.68536 1.79364,-1.59811 1.09605,-0.99415 -0.49428,0.50734 -0.90733,1.07181 -1.26559,1.81042 -0.38987,0.87311 -0.69909,1.80609 -0.92169,2.81146 -0.14011,0.63181 -0.28164,1.26274 -0.4202,1.89529 -1.270019,1.1271 -1.464669,2.16453 -1.844166,0.57793 -0.216679,-0.83969 -0.403314,-1.70057 -0.499438,-2.59481 -0.09991,-1.05222 -0.124985,-2.10766 -0.08854,-3.1702 0.0019,-0.0565 0.02973,-0.92337 0.04712,-0.94224 0.721617,-0.78321 1.179692,-2.06451 1.669483,-1.19661 0.219615,0.62303 0.380436,1.29116 0.486001,1.9814 0.13031,1.04123 0.15394,2.10075 -0.08864,3.11264 -0.131843,0.46292 -0.155458,0.60847 -0.347776,1.0271 -0.632969,1.37786 -1.754674,2.0885 -2.642631,2.90462 -0.698289,0.53004 -1.390283,0.93135 -2.183919,0.80748 -0.589994,-0.16043 -1.151617,-0.41635 -1.530309,-1.18632 -0.305767,-0.72162 -0.466572,-1.48345 -0.515384,-2.34419 -0.02392,-0.4608 -0.03739,-0.91395 -0.03821,-1.37601 -1.49e-4,-0.0843 -0.04519,-0.20413 -3.92e-4,-0.25268 0.480161,-0.5235 1.009191,-0.93141 1.513783,-1.39711 -0.05055,0.55229 0.0012,1.12399 -0.05566,1.6766 -0.0658,1.00598 -0.160209,2.02006 -0.476828,2.92246 -0.11415,0.29462 -0.298797,0.85716 -0.488667,1.04867 -0.637106,0.64261 -1.350568,1.3972 -2.091355,1.84348 -0.477794,0.19202 -0.951891,0.22634 -1.392087,-0.17599 -0.453511,-0.50651 -0.646807,-1.08744 -0.774168,-1.92233 -0.120117,-1.04242 -0.110613,-2.09262 -0.06571,-3.14723 0.04743,-1.09444 0.113332,-2.19647 0.348621,-3.23975 0.160209,-0.70177 0.349694,-1.3783 0.70842,-1.89899 0.528468,-0.48649 1.054897,-0.97828 1.585403,-1.45946 0.237339,-0.21535 0.505187,-0.33648 0.780949,-0.29292 0.329923,0.0868 0.615592,0.27096 0.844646,0.66414 0.360107,0.63063 0.577724,1.33577 0.777651,2.11436 0.250395,0.97794 0.468507,1.97474 0.568872,3.01904 0.06071,0.74143 0.05651,1.48329 0.05994,2.22961 0,0 -1.506962,1.18366 -1.506962,1.18366 z"
       inkscape:connector-curvature="0" />
  </g>
</svg>
